<svg width="4096" height="1536" viewBox="0 0 4096 1536" fill="none" xmlns="http://www.w3.org/2000/svg">
  <defs>
    <linearGradient id="bg" x1="0" y1="0" x2="4096" y2="1536">
      <stop stop-color="#061009"/>
      <stop offset="1" stop-color="#0B1510"/>
    </linearGradient>
    <radialGradient id="glowL" cx="0" cy="0" r="1" gradientUnits="userSpaceOnUse" gradientTransform="translate(920 540) rotate(45) scale(900 600)">
      <stop offset="0" stop-color="#D2FF72" stop-opacity="0.24"/>
      <stop offset="0.4" stop-color="#67D58A" stop-opacity="0.12"/>
      <stop offset="1" stop-color="#061009" stop-opacity="0"/>
    </radialGradient>
    <linearGradient id="wordGrad" x1="1450" y1="520" x2="3120" y2="980">
      <stop stop-color="#F2F7F1"/>
      <stop offset="1" stop-color="#B9D0C1"/>
    </linearGradient>
  </defs>
  <rect width="4096" height="1536" rx="120" fill="url(#bg)"/>
  <rect x="32" y="32" width="4032" height="1472" rx="96" stroke="rgba(255,255,255,0.08)" stroke-width="8"/>
  <circle cx="920" cy="560" r="700" fill="url(#glowL)"/>
  <g transform="translate(260 238) scale(1.05)">
    
  <defs>
    <linearGradient id="outerGlow" x1="140" y1="120" x2="890" y2="920" gradientUnits="userSpaceOnUse">
      <stop offset="0" stop-color="#D2FF72"/>
      <stop offset="0.52" stop-color="#7AE19A"/>
      <stop offset="1" stop-color="#2E8F6B"/>
    </linearGradient>
    <linearGradient id="innerHex" x1="240" y1="200" x2="785" y2="860" gradientUnits="userSpaceOnUse">
      <stop offset="0" stop-color="#0E1A13"/>
      <stop offset="1" stop-color="#07100B"/>
    </linearGradient>
    <linearGradient id="laneFill" x1="326" y1="210" x2="706" y2="850" gradientUnits="userSpaceOnUse">
      <stop offset="0" stop-color="#F9FFF3"/>
      <stop offset="0.42" stop-color="#DBF4E4"/>
      <stop offset="1" stop-color="#8DD3A7"/>
    </linearGradient>
    <radialGradient id="bgGlow" cx="0" cy="0" r="1" gradientUnits="userSpaceOnUse" gradientTransform="translate(470 248) rotate(58) scale(636 724)">
      <stop offset="0" stop-color="#D2FF72" stop-opacity="0.22"/>
      <stop offset="0.45" stop-color="#67D58A" stop-opacity="0.10"/>
      <stop offset="1" stop-color="#061009" stop-opacity="0"/>
    </radialGradient>
    <filter id="soft" x="0" y="0" width="1024" height="1024" filterUnits="userSpaceOnUse">
      <feGaussianBlur stdDeviation="18"/>
    </filter>
  </defs>
  <rect width="1024" height="1024" rx="220" fill="#061009"/>
  <circle cx="512" cy="512" r="420" fill="url(#bgGlow)"/>
  <g opacity="0.45" filter="url(#soft)">
    <path d="M512 124L833 304V664L512 900L191 664V304L512 124Z" stroke="url(#outerGlow)" stroke-width="28"/>
  </g>
  <path d="M512 124L833 304V664L512 900L191 664V304L512 124Z" fill="rgba(255,255,255,0.02)" stroke="url(#outerGlow)" stroke-width="18"/>
  <path d="M512 188L777 337V633L512 824L247 633V337L512 188Z" fill="url(#innerHex)" stroke="rgba(255,255,255,0.12)" stroke-width="4"/>
  <path d="M603 216C539 219 491 240 454 279C418 318 403 362 405 404C406 433 414 457 429 476C444 494 466 514 495 536C532 563 554 585 560 603C566 620 563 644 551 674C536 713 506 760 459 816H637C677 765 701 719 710 680C719 640 714 604 694 573C675 543 643 513 598 483C560 458 537 440 530 427C524 414 527 393 540 365C554 334 579 301 615 266C633 248 658 232 690 216H603Z" fill="url(#laneFill)"/>
  <path d="M548 225C491 239 447 267 416 309C385 352 375 398 386 446C397 494 431 536 487 573C533 603 559 624 566 635C576 651 579 669 574 690C567 724 543 766 502 816" stroke="rgba(255,255,255,0.58)" stroke-width="8" stroke-linecap="round" opacity="0.75"/>
  <path d="M500 334C545 334 584 352 618 388" stroke="rgba(9,17,12,0.45)" stroke-width="10" stroke-linecap="round"/>

  </g>
  <text x="1460" y="760" fill="url(#wordGrad)" font-family="Georgia, 'Times New Roman', serif" font-size="340" font-weight="600" letter-spacing="-14">Stablelane</text>
  <circle cx="3348" cy="770" r="22" fill="#C9FF60"/>
  <text x="1468" y="980" fill="rgba(236,244,236,0.78)" font-family="Inter, Arial, sans-serif" font-size="92" font-weight="600" letter-spacing="10">STABLECOIN REVENUE OS</text>
</svg>